<?xml version="1.0" encoding="UTF-8"?>
<svg width="20px" height="20px" viewBox="0 0 20 20" version="1.1" xmlns="http://www.w3.org/2000/svg" xmlns:xlink="http://www.w3.org/1999/xlink">
    <title>Upload_Active</title>
    <defs>
        <filter color-interpolation-filters="auto" id="filter-1">
            <feColorMatrix in="SourceGraphic" type="matrix" values="0 0 0 0 1.000000 0 0 0 0 1.000000 0 0 0 0 1.000000 0 0 0 1.000000 0"></feColorMatrix>
        </filter>
    </defs>
    <g id="Page-1" stroke="none" stroke-width="1" fill="none" fill-rule="evenodd">
        <g id="All-Publisher" transform="translate(-28.000000, -241.000000)">
            <g id="Upload_Active" transform="translate(28.000000, 241.000000)" filter="url(#filter-1)">
                <g>
                    <polygon id="view_Shape-2" fill="#F6F6F6" fill-rule="nonzero" points="11.2503965 5 11.2503965 13.75 8.75045591 13.75 8.75045591 5 5.00054504 5 10.0004262 0 15.0003074 5"></polygon>
                    <path d="M18.7502182,20 L1.25063418,20 C0.891892703,20 0.550650814,19.84625 0.313156459,19.5775 C0.0756621046,19.30875 -0.0343352808,18.95125 0.00941367935,18.595 L1.25938397,8.595 C1.3381321,7.96875 1.87061944,7.5 2.50060446,7.5 L6.25051533,7.5 L6.25051533,10 L3.60432823,10 L2.66685051,17.5 L17.3340019,17.5 L16.3965242,10 L13.7503371,10 L13.7503371,7.5 L17.5002479,7.5 C18.130233,7.5 18.6627203,7.96875 18.7402185,8.595 L19.9901887,18.595 C20.0351877,18.95125 19.9239403,19.30875 19.686446,19.5775 C19.4502016,19.84625 19.1089597,20 18.7502182,20 Z" id="view_Shape-1" fill="#F6F6F6" fill-rule="nonzero"></path>
                </g>
            </g>
        </g>
    </g>
</svg>