<?xml version="1.0" encoding="utf-8"?>
<!-- Generator: Adobe Illustrator 25.2.3, SVG Export Plug-In . SVG Version: 6.00 Build 0)  -->
<svg version="1.1" id="Layer_1" xmlns="http://www.w3.org/2000/svg" xmlns:xlink="http://www.w3.org/1999/xlink" x="0px" y="0px"
	 viewBox="0 0 400 400" style="enable-background:new 0 0 400 400;" xml:space="preserve">
<style type="text/css">
	.st0{fill:#F2F2F3;}
	.st1{fill:none;stroke:#D6CACA;stroke-width:6;stroke-linecap:round;stroke-linejoin:round;}
</style>
<rect class="st0" width="400" height="400"/>
<g>
	<path class="st1" d="M226.2,166.2h-52.5c-4.1,0-7.5,3.4-7.5,7.5v52.5c0,4.1,3.4,7.5,7.5,7.5h52.5c4.1,0,7.5-3.4,7.5-7.5v-52.5
		C233.8,169.6,230.4,166.2,226.2,166.2z"/>
	<path class="st1" d="M186.9,192.5c3.1,0,5.6-2.5,5.6-5.6s-2.5-5.6-5.6-5.6s-5.6,2.5-5.6,5.6S183.8,192.5,186.9,192.5z"/>
	<path class="st1" d="M233.8,211.2L215,192.5l-41.2,41.2"/>
</g>
</svg>
