<?xml version="1.0" encoding="UTF-8"?>
<svg width="24px" height="24px" viewBox="0 0 24 24" version="1.1" xmlns="http://www.w3.org/2000/svg" xmlns:xlink="http://www.w3.org/1999/xlink">
    <title>Notes_Active</title>
    <g id="Notes_Active" stroke="none" stroke-width="1" fill="none" fill-rule="evenodd">
        <g id="notes-copy" transform="translate(4.000000, 2.000000)" fill="#FFFFFF" fill-rule="nonzero">
            <path d="M13.5041551,2.10526316 L2.28531856,2.10526316 C1.02465374,2.10526316 0,3.11970962 0,4.36781609 L0,17.7374471 C0,18.9855535 1.02465374,20 2.28531856,20 L13.5041551,20 C14.7648199,20 15.7894737,18.9855535 15.7894737,17.7374471 L15.7894737,4.36781609 C15.7894737,3.11970962 14.7648199,2.10526316 13.5041551,2.10526316 Z M4.15512465,6.83605566 L8.31024931,6.83605566 C8.76897507,6.83605566 9.14127424,7.2046461 9.14127424,7.65880218 C9.14127424,8.11295826 8.76897507,8.4815487 8.31024931,8.4815487 L4.15512465,8.4815487 C3.69639889,8.4815487 3.32409972,8.11295826 3.32409972,7.65880218 C3.32409972,7.2046461 3.69639889,6.83605566 4.15512465,6.83605566 Z M12.465374,15.0635209 L4.15512465,15.0635209 C3.69639889,15.0635209 3.32409972,14.6949304 3.32409972,14.2407743 C3.32409972,13.7866183 3.69639889,13.4180278 4.15512465,13.4180278 L12.465374,13.4180278 C12.9240997,13.4180278 13.2963989,13.7866183 13.2963989,14.2407743 C13.2963989,14.6949304 12.9240997,15.0635209 12.465374,15.0635209 Z M12.465374,11.7725348 L4.15512465,11.7725348 C3.69639889,11.7725348 3.32409972,11.4039443 3.32409972,10.9497883 C3.32409972,10.4956322 3.69639889,10.1270417 4.15512465,10.1270417 L12.465374,10.1270417 C12.9240997,10.1270417 13.2963989,10.4956322 13.2963989,10.9497883 C13.2963989,11.4039443 12.9240997,11.7725348 12.465374,11.7725348 Z" id="Shape"></path>
            <path d="M4.21052632,4.21052632 C3.62947368,4.21052632 3.15789474,3.86755981 3.15789474,3.44497608 L3.15789474,0.765550239 C3.15789474,0.342966507 3.62947368,0 4.21052632,0 C4.79157895,0 5.26315789,0.342966507 5.26315789,0.765550239 L5.26315789,3.44497608 C5.26315789,3.86755981 4.79157895,4.21052632 4.21052632,4.21052632 Z" id="Path"></path>
            <path d="M7.36842105,4.21052632 C6.78736842,4.21052632 6.31578947,3.86755981 6.31578947,3.44497608 L6.31578947,0.765550239 C6.31578947,0.342966507 6.78736842,0 7.36842105,0 C7.94947368,0 8.42105263,0.342966507 8.42105263,0.765550239 L8.42105263,3.44497608 C8.42105263,3.86755981 7.94947368,4.21052632 7.36842105,4.21052632 Z" id="Path"></path>
            <path d="M11.5789474,4.21052632 C10.9978947,4.21052632 10.5263158,3.86755981 10.5263158,3.44497608 L10.5263158,0.765550239 C10.5263158,0.342966507 10.9978947,0 11.5789474,0 C12.16,0 12.6315789,0.342966507 12.6315789,0.765550239 L12.6315789,3.44497608 C12.6315789,3.86755981 12.16,4.21052632 11.5789474,4.21052632 Z" id="Path"></path>
        </g>
    </g>
</svg>