<?xml version="1.0" encoding="UTF-8"?>
<svg width="24px" height="24px" viewBox="0 0 24 24" version="1.1" xmlns="http://www.w3.org/2000/svg" xmlns:xlink="http://www.w3.org/1999/xlink">
    <title>Purchased Notes_Inactive</title>
    <g id="Purchased-Notes_Inactive" stroke="none" stroke-width="1" fill="none" fill-rule="evenodd">
        <g id="notes-copy" opacity="0.4" transform="translate(2.000000, 1.000000)" fill-rule="nonzero">
            <path d="M13.5041551,2.10526316 L2.28531856,2.10526316 C1.02465374,2.10526316 0,3.11970962 0,4.36781609 L0,17.7374471 C0,18.9855535 1.02465374,20 2.28531856,20 L13.5041551,20 C14.7648199,20 15.7894737,18.9855535 15.7894737,17.7374471 L15.7894737,4.36781609 C15.7894737,3.11970962 14.7648199,2.10526316 13.5041551,2.10526316 Z M4.15512465,6.83605566 L8.31024931,6.83605566 C8.76897507,6.83605566 9.14127424,7.2046461 9.14127424,7.65880218 C9.14127424,8.11295826 8.76897507,8.4815487 8.31024931,8.4815487 L4.15512465,8.4815487 C3.69639889,8.4815487 3.32409972,8.11295826 3.32409972,7.65880218 C3.32409972,7.2046461 3.69639889,6.83605566 4.15512465,6.83605566 Z M12.465374,15.0635209 L4.15512465,15.0635209 C3.69639889,15.0635209 3.32409972,14.6949304 3.32409972,14.2407743 C3.32409972,13.7866183 3.69639889,13.4180278 4.15512465,13.4180278 L12.465374,13.4180278 C12.9240997,13.4180278 13.2963989,13.7866183 13.2963989,14.2407743 C13.2963989,14.6949304 12.9240997,15.0635209 12.465374,15.0635209 Z M12.465374,11.7725348 L4.15512465,11.7725348 C3.69639889,11.7725348 3.32409972,11.4039443 3.32409972,10.9497883 C3.32409972,10.4956322 3.69639889,10.1270417 4.15512465,10.1270417 L12.465374,10.1270417 C12.9240997,10.1270417 13.2963989,10.4956322 13.2963989,10.9497883 C13.2963989,11.4039443 12.9240997,11.7725348 12.465374,11.7725348 Z" id="Shape" fill="#000000"></path>
            <path d="M4.21052632,4.21052632 C3.62947368,4.21052632 3.15789474,3.86755981 3.15789474,3.44497608 L3.15789474,0.765550239 C3.15789474,0.342966507 3.62947368,0 4.21052632,0 C4.79157895,0 5.26315789,0.342966507 5.26315789,0.765550239 L5.26315789,3.44497608 C5.26315789,3.86755981 4.79157895,4.21052632 4.21052632,4.21052632 Z" id="Path" fill="#525353"></path>
            <path d="M7.36842105,4.21052632 C6.78736842,4.21052632 6.31578947,3.86755981 6.31578947,3.44497608 L6.31578947,0.765550239 C6.31578947,0.342966507 6.78736842,0 7.36842105,0 C7.94947368,0 8.42105263,0.342966507 8.42105263,0.765550239 L8.42105263,3.44497608 C8.42105263,3.86755981 7.94947368,4.21052632 7.36842105,4.21052632 Z" id="Path" fill="#525353"></path>
            <path d="M11.5789474,4.21052632 C10.9978947,4.21052632 10.5263158,3.86755981 10.5263158,3.44497608 L10.5263158,0.765550239 C10.5263158,0.342966507 10.9978947,0 11.5789474,0 C12.16,0 12.6315789,0.342966507 12.6315789,0.765550239 L12.6315789,3.44497608 C12.6315789,3.86755981 12.16,4.21052632 11.5789474,4.21052632 Z" id="Path" fill="#525353"></path>
        </g>
        <circle id="Oval" stroke="#FFFFFF" fill="#FFFFFF" cx="17" cy="16" r="6.5"></circle>
        <g id="dollar-currency-symbol" opacity="0.4" transform="translate(14.000000, 11.000000)" fill="#000000" fill-rule="nonzero">
            <path d="M4.99992725,6.85370422 C5.00524448,6.06256545 4.71908553,5.43688146 4.14830612,4.99502957 C3.70746155,4.6548281 3.17247225,4.47736759 2.65502712,4.30683913 C1.57711315,3.94970576 1.26442201,3.76159644 1.26442201,3.19824191 C1.26442201,2.57072905 2.01061616,2.347458 2.64941298,2.347458 C3.11463046,2.347458 3.64986268,2.50553827 3.98225727,2.7398121 L4.64124338,1.62443032 C4.20682268,1.31664725 3.61226417,1.10670934 3.02515518,1.04154806 L3.02515518,0 L1.80953295,0 L1.80953295,1.11458533 C0.728946876,1.37437501 0.0482329791,2.14622203 0.0482329791,3.19824191 C0.0482329791,3.93501571 0.328372929,4.51931387 0.87928694,4.93143169 C1.29829576,5.24605832 1.80931702,5.41499388 2.30295606,5.57856079 C3.36024887,5.92781817 3.78959526,6.14064689 3.78470989,6.84547426 L3.7846829,6.85066592 C3.7846829,7.44225011 3.06734216,7.652542 2.45278329,7.652542 C1.87226012,7.652542 1.24096681,7.374493 0.883119667,6.96107727 L0,7.87401366 C0.453179474,8.39784074 1.11159878,8.76818926 1.80950596,8.91334936 L1.80950596,10 L3.02515518,10 L3.02515518,8.93674135 C4.22590534,8.74889751 4.99873964,7.95885016 4.99992725,6.85370422 Z" id="Path"></path>
        </g>
    </g>
</svg>