<?xml version="1.0" encoding="UTF-8"?>
<svg width="24px" height="24px" viewBox="0 0 24 24" version="1.1" xmlns="http://www.w3.org/2000/svg" xmlns:xlink="http://www.w3.org/1999/xlink">
    <title>Subscription_Active</title>
    <g id="Subscription_Active" stroke="none" stroke-width="1" fill="none" fill-rule="evenodd">
        <g id="ribbon" transform="translate(1.000165, 1.000000)" fill="#FFFFFF" fill-rule="nonzero">
            <path d="M10.9994914,0 C6.82911644,0 3.43699144,3.392125 3.43699144,7.5625 C3.43699144,11.732875 6.82911644,15.125 10.9994914,15.125 C15.1684914,15.125 18.5619914,11.732875 18.5619914,7.5625 C18.5619914,3.392125 15.1684914,0 10.9994914,0 Z M14.9746164,6.49275 L13.6683664,8.129 L13.8113664,10.267125 C13.8278664,10.505 13.7192414,10.734625 13.5226164,10.8735 C13.4029914,10.957375 13.2641164,11 13.1238664,11 C13.0331164,11 12.9409914,10.982125 12.8557414,10.945 L10.9994914,10.157125 L9.14461644,10.945 C8.92461644,11.0385 8.67161644,11.012375 8.47774144,10.8735 C8.28249144,10.734625 8.17386644,10.505 8.18899144,10.267125 L8.33199144,8.129 L7.02574144,6.49275 C6.87999144,6.31125 6.83736644,6.067875 6.91024144,5.8465 C6.98311644,5.625125 7.16324144,5.457375 7.38874144,5.39825 L9.33849144,4.888125 L10.4082414,3.086875 C10.6557414,2.668875 11.3432414,2.668875 11.5893664,3.086875 L12.6591164,4.888125 L14.6102414,5.39825 C14.8343664,5.457375 15.0144914,5.6265 15.0887414,5.8465 C15.1629914,6.0665 15.1189914,6.309875 14.9746164,6.49275 Z" id="Shape"></path>
            <path d="M3.26511644,12.021625 L0.091616439,17.53125 C-0.047258561,17.77325 -0.026633561,18.074375 0.142491439,18.294375 C0.311616439,18.514375 0.596241439,18.613375 0.865741439,18.539125 L4.90274144,17.45425 L5.97661644,21.49125 C6.04811644,21.759375 6.27499144,21.95875 6.54999144,21.995875 C6.58024144,21.998625 6.61186644,22 6.64074144,22 C6.88411644,22 7.11236644,21.87075 7.23611644,21.65625 L10.2377414,16.4615 C7.25536644,16.2085 4.69236644,14.485625 3.26511644,12.021625 Z" id="Path"></path>
            <path d="M21.9087414,17.53125 L18.7338664,12.021625 C17.3079914,14.485625 14.7436164,16.2085 11.7612414,16.4615 L14.7628664,21.65625 C14.8866164,21.87075 15.1148664,22 15.3582414,22 C15.3871164,22 15.4187414,21.998625 15.4476164,21.9945 C15.7239914,21.957375 15.9494914,21.758 16.0223664,21.489875 L17.0962414,17.452875 L21.1332414,18.53775 C21.4027414,18.612 21.6859914,18.513 21.8564914,18.293 C22.0269914,18.074375 22.0462414,17.77325 21.9087414,17.53125 Z" id="Path"></path>
        </g>
    </g>
</svg>