<?xml version="1.0" encoding="UTF-8"?>
<svg width="24px" height="24px" viewBox="0 0 24 24" version="1.1" xmlns="http://www.w3.org/2000/svg" xmlns:xlink="http://www.w3.org/1999/xlink">
    <title>Downloads_Active</title>
    <g id="Downloads_Active" stroke="none" stroke-width="1" fill="none" fill-rule="evenodd">
        <g id="download-(1)" transform="translate(2.000000, 2.000000)" fill="#FFFFFF" fill-rule="nonzero">
            <path d="M13.9077336,9.51427902 C13.7589719,9.23510126 13.4562396,9.05887803 13.1246327,9.05887803 L11.3746425,9.05887803 L11.3746425,0.823520329 C11.3746425,0.368930004 10.9835227,0 10.4996678,0 C10.015813,0 9.62469322,0.368930004 9.62469322,0.823520329 L9.62469322,9.05883942 L7.87470295,9.05883942 C7.54309606,9.05883942 7.24032276,9.23506266 7.09160209,9.51424041 C6.94460406,9.79341817 6.97610364,10.1269491 7.17473965,10.3764797 L9.79970455,13.6705996 C9.81106572,13.6846125 9.82857916,13.6895537 9.84084267,13.7027174 C9.8985919,13.766953 9.96684098,13.816365 10.042965,13.8616464 C10.0744645,13.8797513 10.0989505,13.9036466 10.1330751,13.9184702 C10.2450873,13.9678822 10.3675583,14 10.4997089,14 C10.6318594,14 10.7543305,13.9678822 10.8672039,13.9184702 C10.9004672,13.9036466 10.9258145,13.8797513 10.9564527,13.8616464 C11.0325767,13.816365 11.1008258,13.766953 11.158575,13.7027174 C11.1699362,13.6895537 11.188311,13.6846125 11.1997132,13.6705996 L13.8246781,10.3764797 C14.0241344,10.1269877 14.055634,9.79345677 13.9077336,9.51427902 Z" id="Path"></path>
            <path d="M19.1666797,12 C18.7058594,12 18.3333594,12.3982083 18.3333594,12.888875 L18.3333594,15.5555417 C18.3333594,17.02575 17.2116797,18.2222083 15.8333594,18.2222083 L4.16667969,18.2222083 C2.78835938,18.2222083 1.66667969,17.02575 1.66667969,15.5555417 L1.66667969,12.888875 C1.66667969,12.3982083 1.29417969,12 0.833359375,12 C0.3725,12 0,12.3982083 0,12.888875 L0,15.5555417 C0,18.0062083 1.86917969,20 4.16667969,20 L15.8333594,20 C18.1308203,20 20,18.0062083 20,15.5555417 L20,12.888875 C20,12.3982083 19.6275,12 19.1666797,12 Z" id="Path"></path>
        </g>
    </g>
</svg>