<?xml version="1.0" encoding="UTF-8"?>
<svg width="24px" height="24px" viewBox="0 0 24 24" version="1.1" xmlns="http://www.w3.org/2000/svg" xmlns:xlink="http://www.w3.org/1999/xlink">
    <title>Earnings_Inactive</title>
    <g id="Earnings_Inactive" stroke="none" stroke-width="1" fill="none" fill-rule="evenodd" opacity="0.4">
        <g id="dollar-currency-symbol" transform="translate(5.000000, 0.000000)" fill="#000000" fill-rule="nonzero">
            <path d="M13.1380235,16.4007529 C13.1519294,14.5075765 12.4035529,13.0103294 10.9108235,11.9529882 C9.75790588,11.1388941 8.35877647,10.7142353 7.00552941,10.3061647 C4.18651765,9.45155294 3.36875294,9.00141176 3.36875294,7.65331765 C3.36875294,6.15169412 5.32023529,5.61741176 6.99084706,5.61741176 C8.20750588,5.61741176 9.60727059,5.99569412 10.4765647,6.55630588 L12.1999765,3.88722353 C11.0638588,3.15070588 9.50894118,2.64832941 7.97350588,2.4924 L7.97350588,0 L4.79435294,0 L4.79435294,2.66717647 C1.96835294,3.28884706 0.188117647,5.13585882 0.188117647,7.65331765 C0.188117647,9.4164 0.920752941,10.8146118 2.36152941,11.8008 C3.45734118,12.5536941 4.79378824,12.9579529 6.08477647,13.3493647 C8.84985882,14.1851294 9.97270588,14.6944235 9.95992941,16.3810588 L9.95985882,16.3934824 C9.95985882,17.8091294 8.08383529,18.3123529 6.47661176,18.3123529 C4.9584,18.3123529 3.30741176,17.6469882 2.37155294,16.6576941 L0.0619764706,18.8423294 C1.24715294,20.0958353 2.96908235,20.9820706 4.79428235,21.3294353 L4.79428235,23.9297647 L7.97350588,23.9297647 L7.97350588,21.3854118 C11.1137647,20.9359059 13.1349176,19.0453412 13.1380235,16.4007529 Z" id="Path"></path>
        </g>
    </g>
</svg>